<svg width="24" height="19" viewBox="0 0 24 19" fill="none" xmlns="http://www.w3.org/2000/svg">
<path d="M4 16.8081V17.8586C4 18.1562 3.87222 18.4057 3.61667 18.6071C3.36111 18.8084 3.04444 18.9091 2.66667 18.9091H1.33333C0.955556 18.9091 0.638889 18.8084 0.383333 18.6071C0.127778 18.4057 0 18.1562 0 17.8586V9.45455L2.8 3.15152C2.93333 2.83636 3.17222 2.58249 3.51667 2.3899C3.86111 2.19731 4.24444 2.10101 4.66667 2.10101H8V0H16V2.10101H19.3333C19.7556 2.10101 20.1389 2.19731 20.4833 2.3899C20.8278 2.58249 21.0667 2.83636 21.2 3.15152L24 9.45455V17.8586C24 18.1562 23.8722 18.4057 23.6167 18.6071C23.3611 18.8084 23.0444 18.9091 22.6667 18.9091H21.3333C20.9556 18.9091 20.6389 18.8084 20.3833 18.6071C20.1278 18.4057 20 18.1562 20 17.8586V16.8081H4ZM3.73333 7.35354H20.2667L18.8667 4.20202H5.13333L3.73333 7.35354ZM6 13.6566C6.55556 13.6566 7.02778 13.5034 7.41667 13.197C7.80556 12.8906 8 12.5185 8 12.0808C8 11.6431 7.80556 11.271 7.41667 10.9646C7.02778 10.6582 6.55556 10.5051 6 10.5051C5.44444 10.5051 4.97222 10.6582 4.58333 10.9646C4.19444 11.271 4 11.6431 4 12.0808C4 12.5185 4.19444 12.8906 4.58333 13.197C4.97222 13.5034 5.44444 13.6566 6 13.6566ZM18 13.6566C18.5556 13.6566 19.0278 13.5034 19.4167 13.197C19.8056 12.8906 20 12.5185 20 12.0808C20 11.6431 19.8056 11.271 19.4167 10.9646C19.0278 10.6582 18.5556 10.5051 18 10.5051C17.4444 10.5051 16.9722 10.6582 16.5833 10.9646C16.1944 11.271 16 11.6431 16 12.0808C16 12.5185 16.1944 12.8906 16.5833 13.197C16.9722 13.5034 17.4444 13.6566 18 13.6566ZM2.66667 14.7071H21.3333V9.45455H2.66667V14.7071Z" fill="#1D1B20"/>
</svg>
