<svg width="50" height="49" viewBox="0 0 50 49" fill="none" xmlns="http://www.w3.org/2000/svg">
<path d="M11.6667 37.0135V38.7643C11.6667 39.2604 11.4537 39.6762 11.0278 40.0118C10.6019 40.3474 10.0741 40.5151 9.44444 40.5151H7.22222C6.59259 40.5151 6.06481 40.3474 5.63889 40.0118C5.21296 39.6762 5 39.2604 5 38.7643V24.7576L9.66667 14.2525C9.88889 13.7273 10.287 13.3042 10.8611 12.9832C11.4352 12.6622 12.0741 12.5017 12.7778 12.5017H18.3333V9H31.6667V12.5017H37.2222C37.9259 12.5017 38.5648 12.6622 39.1389 12.9832C39.713 13.3042 40.1111 13.7273 40.3333 14.2525L45 24.7576V38.7643C45 39.2604 44.787 39.6762 44.3611 40.0118C43.9352 40.3474 43.4074 40.5151 42.7778 40.5151H40.5556C39.9259 40.5151 39.3982 40.3474 38.9722 40.0118C38.5463 39.6762 38.3333 39.2604 38.3333 38.7643V37.0135H11.6667ZM11.2222 21.2559H38.7778L36.4444 16.0034H13.5556L11.2222 21.2559ZM15 31.7609C15.9259 31.7609 16.713 31.5056 17.3611 30.9949C18.0093 30.4843 18.3333 29.8642 18.3333 29.1347C18.3333 28.4052 18.0093 27.7851 17.3611 27.2744C16.713 26.7637 15.9259 26.5084 15 26.5084C14.0741 26.5084 13.287 26.7637 12.6389 27.2744C11.9907 27.7851 11.6667 28.4052 11.6667 29.1347C11.6667 29.8642 11.9907 30.4843 12.6389 30.9949C13.287 31.5056 14.0741 31.7609 15 31.7609ZM35 31.7609C35.9259 31.7609 36.713 31.5056 37.3611 30.9949C38.0093 30.4843 38.3333 29.8642 38.3333 29.1347C38.3333 28.4052 38.0093 27.7851 37.3611 27.2744C36.713 26.7637 35.9259 26.5084 35 26.5084C34.0741 26.5084 33.287 26.7637 32.6389 27.2744C31.9907 27.7851 31.6667 28.4052 31.6667 29.1347C31.6667 29.8642 31.9907 30.4843 32.6389 30.9949C33.287 31.5056 34.0741 31.7609 35 31.7609ZM9.44444 33.5118H40.5556V24.7576H9.44444V33.5118Z" fill="#4C89E9"/>
</svg>
