<svg width="30" height="30" viewBox="0 0 30 30" fill="none" xmlns="http://www.w3.org/2000/svg">
<path opacity="0.4" d="M15 27.5C21.9036 27.5 27.5 21.9036 27.5 15C27.5 8.09644 21.9036 2.5 15 2.5C8.09644 2.5 2.5 8.09644 2.5 15C2.5 21.9036 8.09644 27.5 15 27.5Z" fill="#FFB609"/>
<path d="M19.6375 19.9127C19.475 19.9127 19.3125 19.8752 19.1625 19.7752L15.2875 17.4627C14.325 16.8877 13.6125 15.6252 13.6125 14.5127V9.3877C13.6125 8.8752 14.0375 8.4502 14.55 8.4502C15.0625 8.4502 15.4875 8.8752 15.4875 9.3877V14.5127C15.4875 14.9627 15.8625 15.6252 16.25 15.8502L20.125 18.1627C20.575 18.4252 20.7125 19.0002 20.45 19.4502C20.2625 19.7502 19.95 19.9127 19.6375 19.9127Z" fill="#FFB609"/>
</svg>
