<svg width="52" height="52" viewBox="0 0 52 52" fill="none" xmlns="http://www.w3.org/2000/svg">
<path d="M19.6732 23.3182C19.4591 23.2968 19.2023 23.2968 18.9668 23.3182C13.8724 23.147 9.8269 18.973 9.8269 13.8358C9.8269 8.59162 14.0651 4.33203 19.3307 4.33203C24.5749 4.33203 28.8345 8.59162 28.8345 13.8358C28.8131 18.973 24.7676 23.147 19.6732 23.3182Z" stroke="#4C89E9" stroke-width="3.21074" stroke-linecap="round" stroke-linejoin="round"/>
<path d="M35.1911 8.6123C39.3437 8.6123 42.6828 11.9729 42.6828 16.104C42.6828 20.1496 39.4721 23.4459 35.4694 23.5958C35.2981 23.5744 35.1055 23.5744 34.9128 23.5958" stroke="#4C89E9" stroke-width="3.21074" stroke-linecap="round" stroke-linejoin="round"/>
<path d="M8.97094 31.2162C3.79094 34.6838 3.79094 40.3347 8.97094 43.7809C14.8573 47.7194 24.5109 47.7194 30.3973 43.7809C35.5773 40.3133 35.5773 34.6623 30.3973 31.2162C24.5323 27.299 14.8787 27.299 8.97094 31.2162Z" stroke="#4C89E9" stroke-width="3.21074" stroke-linecap="round" stroke-linejoin="round"/>
<path d="M39.3223 42.8606C40.8634 42.5395 42.319 41.9187 43.5176 40.9983C46.8568 38.4939 46.8568 34.3628 43.5176 31.8584C42.3404 30.9594 40.9062 30.3601 39.3865 30.0176" stroke="#4C89E9" stroke-width="3.21074" stroke-linecap="round" stroke-linejoin="round"/>
</svg>
