<svg width="32" height="32" viewBox="0 0 32 32" fill="none" xmlns="http://www.w3.org/2000/svg">
<rect width="32" height="32" rx="4" fill="#4F8AFF"/>
<path d="M21 6H11C8.23858 6 6 8.23858 6 11V21C6 23.7614 8.23858 26 11 26H21C23.7614 26 26 23.7614 26 21V11C26 8.23858 23.7614 6 21 6Z" stroke="white" stroke-width="2" stroke-linecap="round" stroke-linejoin="round"/>
<path d="M20 15.3703C20.1234 16.2025 19.9812 17.0525 19.5937 17.7993C19.2062 18.5461 18.5931 19.1517 17.8416 19.53C17.0901 19.9082 16.2384 20.0399 15.4077 19.9062C14.5771 19.7726 13.8097 19.3804 13.2148 18.7855C12.6199 18.1905 12.2277 17.4232 12.094 16.5925C11.9604 15.7619 12.092 14.9102 12.4703 14.1587C12.8485 13.4072 13.4541 12.794 14.2009 12.4065C14.9477 12.019 15.7977 11.8769 16.63 12.0003C17.4789 12.1262 18.2648 12.5218 18.8716 13.1286C19.4785 13.7355 19.8741 14.5214 20 15.3703Z" stroke="white" stroke-width="2" stroke-linecap="round" stroke-linejoin="round"/>
<path d="M21.5 10.5H21.51" stroke="white" stroke-width="2" stroke-linecap="round" stroke-linejoin="round"/>
</svg>
