<svg width="35" height="35" viewBox="0 0 35 35" fill="none" xmlns="http://www.w3.org/2000/svg">
<circle cx="17.5" cy="17.5" r="17.5" fill="white"/>
<path d="M19.0711 22.6442C18.9164 22.6442 18.7618 22.5872 18.6397 22.4651C18.4036 22.2291 18.4036 21.8384 18.6397 21.6023L23.149 17.093L18.6397 12.5837C18.4036 12.3477 18.4036 11.957 18.6397 11.7209C18.8757 11.4849 19.2664 11.4849 19.5025 11.7209L24.4432 16.6616C24.6792 16.8977 24.6792 17.2884 24.4432 17.5244L19.5025 22.4651C19.3804 22.5872 19.2257 22.6442 19.0711 22.6442Z" fill="#292D32"/>
<path d="M23.8733 17.7035H10.1744C9.84071 17.7035 9.56396 17.4267 9.56396 17.093C9.56396 16.7593 9.84071 16.4826 10.1744 16.4826H23.8733C24.207 16.4826 24.4837 16.7593 24.4837 17.093C24.4837 17.4267 24.207 17.7035 23.8733 17.7035Z" fill="#292D32"/>
</svg>
